<svg xmlns="http://www.w3.org/2000/svg" xmlns:xlink="http://www.w3.org/1999/xlink" id="Camada_1" x="0px" y="0px" viewBox="0 0 200 56.7" style="enable-background:new 0 0 200 56.7;" xml:space="preserve"><style type="text/css">	.st0{fill-rule:evenodd;clip-rule:evenodd;fill:#E25D9C;}	.st1{fill:#65BB96;}	.st2{fill:#273581;}</style><g>	<path class="st0" d="M22.9,31.6c3.1,1.2,4.1,4.1,4.3,5.8c0.1,0.9-0.6,1.4-0.6,1.4L11.1,49.6c-0.4-8,0.8-10.1,1.3-11.5  C14.9,31.9,19.9,30.4,22.9,31.6z"></path>	<path id="SVGID_12_" class="st1" d="M19.1,26c-8.3-5.4-8.3-10.2-7.9-18.9l30.3,21.2L29.1,37c0.2-3.8-2.6-5.8-4.1-7  c-0.9-0.7-2.1-1.4-3.1-2.2C20.4,26.9,19.1,26,19.1,26z"></path>	<g>		<g>			<path class="st2" d="M188.8,42.6c-1.6,0-3.2,0-4.9,0c0-1.5,0-2.9,0-4.3c0-3,0-6,0-9c0-0.5,0-0.9-0.1-1.4    c-0.4-2.9-1.9-4.3-4.7-4.2c-2.6,0-4.5,1.7-4.7,4.4c-0.2,2.1-0.1,4.3-0.2,6.4c0,2.7,0,5.3,0,8.1c-1.7,0-3.2,0-5,0    c0-0.4,0-0.8,0-1.2c0-3.9,0-7.9,0-11.8c0-0.4,0-0.8,0-1.2c-0.1-2.7-1.5-4.5-3.7-4.6c-3-0.2-5.1,1.3-5.6,4    c-0.1,0.8-0.2,1.6-0.2,2.5c0,3.7,0,7.4,0,11.2c0,0.4,0,0.8,0,1.3c-1.7,0-3.3,0-4.9,0c0-7.6,0-15.2,0-22.9c1.6,0,3.2,0,4.9,0    c0,0.7,0,1.5,0,2.6c1.9-2.4,4.1-3.4,6.8-3.3c2.7,0.1,4.9,1.2,6.4,3.5c0.2-0.2,0.4-0.4,0.6-0.6c3.3-4.1,10.2-4,13.5,0.2    c1.2,1.6,1.8,3.5,1.9,5.5c0.1,4.9,0,9.8,0,14.7C188.9,42.3,188.9,42.4,188.8,42.6z"></path>			<path class="st2" d="M94.5,35.7c1.4,0.8,2.7,1.6,4.1,2.4c-2.2,3.2-5.3,4.7-9,5c-5.1,0.4-10.3-1.7-12.6-6.7    c-2.9-6.4-0.3-14.7,7.1-17c8.9-2.7,16.2,3.8,15.6,12.7c0,0.3-0.1,0.6-0.2,0.9c-6.1,0-12.1,0-18.1,0c-0.1,1.8,1.5,3.9,3.6,4.8    C88.3,39.3,91.8,38.5,94.5,35.7z M94.5,28.9c-0.3-3.4-3.1-5.7-6.8-5.6c-3.4,0.1-6.3,2.5-6.6,5.6C85.6,28.9,90,28.9,94.5,28.9z"></path>			<path class="st2" d="M140,18.7c6.8,0,12.2,5.4,12.2,12.2s-5.5,12.2-12.3,12.2c-6.8,0-12.2-5.5-12.2-12.2    C127.7,24.1,133.1,18.7,140,18.7z M139.9,38.2c4.1,0,7.3-3.2,7.2-7.3c0-4.1-3.2-7.4-7.3-7.3c-4,0-7.1,3.2-7.2,7.3    C132.7,35.1,135.8,38.2,139.9,38.2z"></path>			<path class="st2" d="M121,34.7c1.3,0.8,2.7,1.5,4.1,2.3c-1.5,3.9-6.9,6.7-11.6,6c-6.3-0.8-10.4-5.2-10.9-11.4    c-0.4-5.7,3.3-10.9,8.8-12.4c5.5-1.5,11.4,0.8,13.7,5.5c-1.4,0.8-2.7,1.6-4.2,2.5c-1.4-2.3-3.4-3.5-6-3.5c-2,0-3.8,0.6-5.2,2.1    c-2.8,2.8-2.8,7.8,0.1,10.6C113,39.3,117.4,38.7,121,34.7z"></path>			<path class="st2" d="M55.7,42.6c0-10.8,0-17.6,0-28.3c1.8,0,3.5,0,5.3,0c0,9,0,14.1,0,23.3c4.4,0,7.8,0,12.2,0c0,1.8,0,3.4,0,5    C67.1,42.6,61.9,42.6,55.7,42.6z"></path>		</g>	</g></g></svg>