<svg enable-background="new -809 501 300 80" viewBox="-809 501 300 80" xmlns="http://www.w3.org/2000/svg"><path d="m-746.6 546.5c2.4 0 4.3-2 4.3-4.3v-3.2c0-2.4-2-4.3-4.3-4.3h-9.1c-2.4 0-4.3 2-4.3 4.3v3.2c0 2.4 2 4.3 4.3 4.3zm-1.7-21c.9.1 1.7.4 2.5.8 1.7.7 3.2 1.7 4.4 3s2.2 2.8 3 4.4c.7 1.7 1.1 3.5 1.1 5.4v14h-13.9c-1.9 0-3.7-.4-5.4-1.1s-3.2-1.7-4.5-3-2.3-2.8-3-4.5-1.1-3.5-1.1-5.4c0-2 .4-3.8 1.1-5.4s1.7-3.2 3-4.4 2.8-2.2 4.5-3c.8-.4 1.6-.6 2.4-.8v-.8h2.1v-2.7c-1.2-.4-2.1-1.5-2.1-2.9 0-1.7 1.4-3 3-3 1.7 0 3 1.4 3 3 0 1.4-.9 2.5-2.1 2.9v2.8h2.1z" fill="#fe7501"/><path d="m-746.6 538c1.4 0 2.5 1.2 2.5 2.5 0 1.4-1.2 2.5-2.5 2.5s-2.5-1.2-2.5-2.5c0-1.4 1.1-2.5 2.5-2.5zm-9.1 0c1.4 0 2.5 1.2 2.5 2.5 0 1.4-1.2 2.5-2.5 2.5s-2.5-1.2-2.5-2.5c-.1-1.4 1-2.5 2.5-2.5z" fill="#0b2b3b"/><path d="m-732.5 539.2c0-2 .4-3.8 1.1-5.4.7-1.7 1.7-3.2 3-4.4s2.8-2.2 4.4-3c1.7-.7 3.5-1.1 5.4-1.1 2 0 3.8.4 5.4 1.1 1.7.7 3.2 1.7 4.4 3 1.3 1.2 2.3 2.8 3 4.4.7 1.7 1.1 3.5 1.1 5.4v14h-5.5v-14c0-1.2-.2-2.2-.7-3.3-.4-1-1-1.9-1.8-2.7s-1.7-1.4-2.7-1.8-2.2-.7-3.3-.7c-1.2 0-2.2.2-3.3.7s-1.9 1-2.7 1.8-1.4 1.7-1.8 2.7-.7 2.1-.7 3.3v14h-5.5c.2 0 .2-14 .2-14z" fill="#fe7501"/><path d="m-671.6 525.3v25.2c0 2-.4 3.8-1.1 5.4-.7 1.7-1.7 3.2-3 4.4-1.2 1.3-2.8 2.3-4.4 3-1.7.7-3.5 1.1-5.4 1.1h-2.8v-5.5h2.8c1.2 0 2.2-.2 3.3-.7 1-.4 1.9-1 2.7-1.8s1.4-1.7 1.8-2.7.7-2.2.7-3.3v-.1c-1.2.9-2.5 1.6-3.9 2.1s-3 .7-4.5.7c-1.9 0-3.7-.4-5.4-1.1s-3.2-1.7-4.5-3-2.3-2.8-3-4.5-1.1-3.5-1.1-5.4v-13.8h5.5v13.9c0 1.2.2 2.2.7 3.3.4 1 1 2 1.8 2.7.8.8 1.7 1.4 2.7 1.8s2.1.7 3.3.7 2.2-.2 3.3-.7c1-.4 1.9-1 2.7-1.8s1.4-1.7 1.8-2.7.7-2.2.7-3.3v-13.9z" fill="#fe7501"/><path d="m-649.8 547.6v5.5h-2.8c-1.9 0-3.7-.4-5.4-1.1s-3.2-1.7-4.5-3-2.3-2.8-3-4.5-1.1-3.5-1.1-5.4v-25.1h5.5v16.8h11.2v5.5h-11.2v2.8c0 1.2.2 2.2.7 3.3.4 1 1 2 1.8 2.7.8.8 1.7 1.4 2.7 1.8s2.2.7 3.3.7z" fill="#0b2b3b"/><path d="m-551.1 528c0 2.3-.5 4.4-1.5 6.4s-2.4 3.6-4.1 4.9c1.7 1.3 3.1 2.9 4.1 4.9s1.5 4.1 1.5 6.4v2.8h-5.5v-2.8c0-1.2-.2-2.2-.7-3.3s-1-1.9-1.8-2.7-1.7-1.4-2.7-1.8-2.1-.7-3.3-.7-2.2.2-3.3.7c-1 .4-2 1-2.7 1.8-.8.8-1.4 1.7-1.8 2.7s-.7 2.1-.7 3.3v2.8h-5.5v-39.3h5.5v25.3c1.2-.9 2.5-1.6 4-2.1 1.4-.5 3-.7 4.5-.7 1.2 0 2.2-.2 3.3-.7 1-.4 1.9-1 2.7-1.8s1.4-1.7 1.8-2.7.7-2.2.7-3.3v-2.8h5.5z" fill="#0b2b3b"/><path d="m-551.1 561.8h-5.4c-.5 0-.9.1-1.1.1-.4.1-.5.4-.5.7v.4c0 .6.6.9 1.7.9h2.7c.8 0 1.4.2 1.9.6s.7.9.7 1.4v1.1c0 .6-.2 1-.7 1.4-.3.3-.7.4-.9.5-.3.1-.7.1-1.2.1h-6.1v-1.5h5.6c.6 0 .9-.1 1.2-.4.1-.1.2-.5.2-.9 0-.6-.4-.9-1.3-.9h-2.5c-.9 0-1.5-.1-2.1-.5-.7-.4-.9-.9-.9-1.4v-1.2c0-.7.4-1.2 1.1-1.6.4-.3 1.1-.4 2-.4h5.9v1.6zm-17.6 1.1c0-.8-.5-1.1-1.6-1.1h-2.2c-1.2 0-1.9.4-1.9 1.2v1.7zm2.1.9-7.8 2.3v.3c0 .4.1.8.5 1 .2.1.7.2 1.2.2h6v1.4h-6.5c-1.1 0-2-.1-2.5-.5-.7-.4-1-1-1-1.9v-4.1c0-1.4 1.1-2.2 3.3-2.2h3.6c2 0 3 .8 3 2.4v1.1zm-19 2.7v-3.4c0-.4-.1-.7-.5-.9-.3-.1-.7-.2-1.2-.2h-2.4c-.6 0-.9.1-1.2.2-.4.2-.5.5-.5.9v3.5c0 .4.1.7.5.9.3.1.7.2 1.1.2h2.8c.4 0 .8-.1 1-.2.2-.3.4-.6.4-1zm2 .4c0 .8-.4 1.4-1 1.7-.4.3-1.2.4-2.1.4h-3.6c-1.1 0-1.9-.2-2.5-.6-.5-.4-.8-.9-.8-1.6v-4.3c0-.7.4-1.3 1-1.7.5-.3 1.2-.4 2.2-.4h3.6c1 0 1.7.1 2.2.4.7.4.9 1 .9 1.7zm-1.1-8.5-.8.1c-.1 0-.3.1-.7.2-.3.1-.6.1-.8.1-.4 0-.8-.1-1.4-.3-.7-.1-1.2-.3-1.5-.3s-1.1.1-2.3.5v-1c.2-.1.5-.1.9-.2.9-.2 1.3-.3 1.4-.3.3 0 .8.1 1.4.3.7.1 1.1.3 1.4.3.2 0 .7-.1 1.3-.3.2-.1.6-.1 1.1-.2zm-15.9 10.7h-4.6c-2.2 0-3.3-.8-3.3-2.3v-4.2c0-1.4.9-2.2 2.8-2.2h5.1v1.5h-4.3c-.6 0-1 .1-1.2.2s-.4.4-.4.9v3.5c0 .8.6 1.2 1.7 1.2h4.2zm-2.9 0c.8.2 1.2.5 1.2 1s-.2.7-.7.9c-.4.2-1 .4-1.7.4-.3 0-.5 0-.8-.1v-.7h.6c.4 0 .7-.1 1-.1.3-.1.4-.2.4-.4 0-.4-.4-.5-1.4-.5l.6-1.1 1.1.4zm-20.1-8.8v5.4c0 .4.1.8.4 1.1.2.2.7.3 1.4.3h2.2c1.2 0 1.8-.4 1.8-1.4v-5.4h2v5.9c0 1.8-1.1 2.8-3.2 2.8h-3.5c-2.1 0-3.2-.9-3.2-2.8v-5.9zm-9.1 8.8h-2v-11.6h2zm-11.3-2.6v-3.6c0-.4-.1-.7-.5-.9-.3-.1-.7-.3-1.2-.3h-2.4c-.6 0-.9.1-1.2.3-.4.2-.5.5-.5.9v3.6c0 .4.1.7.5.9.3.1.7.2 1.1.2h2.7c.4 0 .8-.1 1-.2.3-.3.5-.6.5-.9zm2 .4c0 .7-.4 1.3-1 1.7-.5.3-1.2.4-2.1.4h-3.6c-1.1 0-1.9-.2-2.5-.6-.5-.4-.8-.9-.8-1.6v-4.3c0-.7.4-1.4 1-1.7.5-.3 1.2-.4 2.2-.4h3.6c1 0 1.7.1 2.2.4.7.4.9 1 .9 1.7zm-16.8-5.1h-5.4c-.5 0-.9.1-1.1.1-.4.1-.5.4-.5.7v.4c0 .6.6.9 1.7.9h2.7c.8 0 1.4.2 1.9.6s.7.9.7 1.4v1.1c0 .6-.2 1-.7 1.4-.3.3-.7.4-.9.5-.3.1-.7.1-1.2.1h-6.1v-1.5h5.6c.6 0 .9-.1 1.2-.4.1-.1.2-.5.2-.9 0-.6-.4-.9-1.3-.9h-2.5c-.9 0-1.5-.1-2.1-.5-.7-.4-.9-.9-.9-1.4v-1.2c0-.7.4-1.2 1.1-1.6.4-.3 1.1-.4 2-.4h5.9v1.6z" fill="#fe7501"/><path d="m-622.7 547.6v-8.5c0-1.2-.2-2.2-.7-3.3-.4-1-1-1.9-1.8-2.7-.4-.4-.9-.9-1.5-1.2l4-4.1c.5.4 1 .8 1.5 1.3 1.3 1.3 2.2 2.8 3 4.4.7 1.7 1.1 3.5 1.1 5.4v14.2h-14c-1.9 0-3.7-.4-5.4-1.1s-3.2-1.7-4.5-3c-.4-.4-.8-.9-1.2-1.3l3.9-4c.3.5.7.9 1.1 1.4.8.8 1.7 1.4 2.7 1.8s2.2.7 3.3.7z" fill="#0b2b3b"/><path d="m-628.6 525.5c1.7.4 3.4 1 4.9 2l-3.9 3.9c-1.1-.6-2.4-.9-3.7-.9-4.6 0-8.5 3.8-8.5 8.5 0 1.4.4 2.7.9 3.8l-3.9 3.9c-.9-1.4-1.7-3-2.1-4.8l-2.2-.4v-4.6l2-.4c.4-1.8 1-3.6 2-5.1l-1.2-1.7 3.3-3.3 1.7 1.1c1.5-1 3.3-1.8 5.1-2.2l.4-2h4.6z" fill="#fe7501"/><path d="m-586.7 525.2v5.5h-15.9v-2.4l-5.1 5.1 5.1 5.1v-2.3h10.2c1.2 0 2.2.2 3.3.7 1 .4 1.9 1 2.7 1.7s1.4 1.6 1.8 2.7c.4 1 .7 2.1.7 3.3s-.2 2.2-.7 3.3c-.4 1-1 1.9-1.8 2.7s-1.7 1.4-2.7 1.8-2.1.7-3.3.7h-16.8v-5.5h15.7v2.3l2.9-2.9.2-.2.2-.2 1.8-1.8-5.1-5.1v2.4h-10.1c-1.2 0-2.2-.2-3.3-.7-1-.4-1.9-1-2.7-1.8-.7-.8-1.3-1.7-1.7-2.7s-.7-2.1-.7-3.3.2-2.2.7-3.3c.4-1 1-1.9 1.7-2.7.7-.7 1.6-1.3 2.7-1.7 1-.4 2.1-.7 3.3-.7z" fill="#0b2b3b"/></svg>